<svg width="58" height="23" viewBox="0 0 58 23" fill="none" xmlns="http://www.w3.org/2000/svg">
<rect width="58" height="23" fill="#D10000"/>
<path d="M5.41477 15H4.30682L7.51136 6.27273H8.60227L11.8068 15H10.6989L8.09091 7.65341H8.02273L5.41477 15ZM5.82386 11.5909H10.2898V12.5284H5.82386V11.5909ZM14.0355 11.0625V15H13.0298V8.45455H14.0014V9.47727H14.0866C14.2401 9.14489 14.473 8.87784 14.7855 8.67614C15.098 8.47159 15.5014 8.36932 15.9957 8.36932C16.4389 8.36932 16.8267 8.46023 17.1591 8.64205C17.4915 8.82102 17.75 9.09375 17.9347 9.46023C18.1193 9.82386 18.2116 10.2841 18.2116 10.8409V15H17.206V10.9091C17.206 10.3949 17.0724 9.99432 16.8054 9.70739C16.5384 9.41761 16.1719 9.27273 15.706 9.27273C15.3849 9.27273 15.098 9.34233 14.8452 9.48153C14.5952 9.62074 14.3977 9.82386 14.2528 10.0909C14.108 10.358 14.0355 10.6818 14.0355 11.0625ZM24.1744 12.3239V8.45455H25.18V15H24.1744V13.892H24.1062C23.9528 14.2244 23.7141 14.5071 23.3903 14.7401C23.0664 14.9702 22.6573 15.0852 22.163 15.0852C21.7539 15.0852 21.3903 14.9957 21.0721 14.8168C20.7539 14.6349 20.5039 14.3622 20.3221 13.9986C20.1403 13.6321 20.0494 13.1705 20.0494 12.6136V8.45455H21.055V12.5455C21.055 13.0227 21.1886 13.4034 21.4556 13.6875C21.7255 13.9716 22.0692 14.1136 22.4869 14.1136C22.7369 14.1136 22.9911 14.0497 23.2496 13.9219C23.511 13.794 23.7298 13.598 23.9059 13.3338C24.0849 13.0696 24.1744 12.733 24.1744 12.3239ZM28.0277 11.0625V15H27.022V8.45455H27.9936V9.47727H28.0788C28.2322 9.14489 28.4652 8.87784 28.7777 8.67614C29.0902 8.47159 29.4936 8.36932 29.9879 8.36932C30.4311 8.36932 30.8189 8.46023 31.1513 8.64205C31.4837 8.82102 31.7422 9.09375 31.9268 9.46023C32.1115 9.82386 32.2038 10.2841 32.2038 10.8409V15H31.1982V10.9091C31.1982 10.3949 31.0646 9.99432 30.7976 9.70739C30.5305 9.41761 30.1641 9.27273 29.6982 9.27273C29.3771 9.27273 29.0902 9.34233 28.8374 9.48153C28.5874 9.62074 28.3899 9.82386 28.245 10.0909C28.1001 10.358 28.0277 10.6818 28.0277 11.0625ZM36.7006 15.1364C36.087 15.1364 35.5586 14.9915 35.1154 14.7017C34.6722 14.4119 34.3313 14.0128 34.0927 13.5043C33.854 12.9957 33.7347 12.4148 33.7347 11.7614C33.7347 11.0966 33.8569 10.5099 34.1012 10.0014C34.3484 9.49006 34.6921 9.09091 35.1325 8.80398C35.5756 8.5142 36.0927 8.36932 36.6836 8.36932C37.1438 8.36932 37.5586 8.45455 37.9279 8.625C38.2972 8.79545 38.5998 9.03409 38.8356 9.34091C39.0714 9.64773 39.2177 10.0057 39.2745 10.4148H38.2688C38.1921 10.1165 38.0217 9.85227 37.7575 9.62216C37.4961 9.3892 37.1438 9.27273 36.7006 9.27273C36.3086 9.27273 35.9648 9.375 35.6694 9.57955C35.3768 9.78125 35.1481 10.0668 34.9833 10.4361C34.8214 10.8026 34.7404 11.233 34.7404 11.7273C34.7404 12.233 34.82 12.6733 34.979 13.0483C35.141 13.4233 35.3683 13.7145 35.6609 13.9219C35.9563 14.1293 36.3029 14.233 36.7006 14.233C36.962 14.233 37.1992 14.1875 37.4123 14.0966C37.6254 14.0057 37.8058 13.875 37.9535 13.7045C38.1012 13.5341 38.2063 13.3295 38.2688 13.0909H39.2745C39.2177 13.4773 39.0771 13.8253 38.8526 14.1349C38.631 14.4418 38.337 14.6861 37.9705 14.8679C37.6069 15.0469 37.1836 15.1364 36.7006 15.1364ZM40.7447 15V8.45455H41.7504V15H40.7447ZM41.256 7.36364C41.06 7.36364 40.891 7.29688 40.7489 7.16335C40.6097 7.02983 40.5401 6.86932 40.5401 6.68182C40.5401 6.49432 40.6097 6.33381 40.7489 6.20028C40.891 6.06676 41.06 6 41.256 6C41.4521 6 41.6197 6.06676 41.7589 6.20028C41.9009 6.33381 41.9719 6.49432 41.9719 6.68182C41.9719 6.86932 41.9009 7.02983 41.7589 7.16335C41.6197 7.29688 41.4521 7.36364 41.256 7.36364ZM45.5185 15.1534C45.1037 15.1534 44.7273 15.0753 44.3892 14.919C44.0511 14.7599 43.7827 14.5312 43.5838 14.233C43.3849 13.9318 43.2855 13.5682 43.2855 13.142C43.2855 12.767 43.3594 12.4631 43.5071 12.2301C43.6548 11.9943 43.8523 11.8097 44.0994 11.6761C44.3466 11.5426 44.6193 11.4432 44.9176 11.3778C45.2188 11.3097 45.5213 11.2557 45.8253 11.2159C46.223 11.1648 46.5455 11.1264 46.7926 11.1009C47.0426 11.0724 47.2244 11.0256 47.3381 10.9602C47.4545 10.8949 47.5128 10.7812 47.5128 10.6193V10.5852C47.5128 10.1648 47.3977 9.83807 47.1676 9.60511C46.9403 9.37216 46.5952 9.25568 46.1321 9.25568C45.652 9.25568 45.2756 9.3608 45.0028 9.57102C44.7301 9.78125 44.5384 10.0057 44.4276 10.2443L43.473 9.90341C43.6435 9.50568 43.8707 9.19602 44.1548 8.97443C44.4418 8.75 44.7543 8.59375 45.0923 8.50568C45.4332 8.41477 45.7685 8.36932 46.098 8.36932C46.3082 8.36932 46.5497 8.39489 46.8224 8.44602C47.098 8.49432 47.3636 8.59517 47.6193 8.74858C47.8778 8.90199 48.0923 9.13352 48.2628 9.44318C48.4332 9.75284 48.5185 10.1676 48.5185 10.6875V15H47.5128V14.1136H47.4616C47.3935 14.2557 47.2798 14.4077 47.1207 14.5696C46.9616 14.7315 46.75 14.8693 46.4858 14.983C46.2216 15.0966 45.8991 15.1534 45.5185 15.1534ZM45.6719 14.25C46.0696 14.25 46.4048 14.1719 46.6776 14.0156C46.9531 13.8594 47.1605 13.6577 47.2997 13.4105C47.4418 13.1634 47.5128 12.9034 47.5128 12.6307V11.7102C47.4702 11.7614 47.3764 11.8082 47.2315 11.8509C47.0895 11.8906 46.9247 11.9261 46.7372 11.9574C46.5526 11.9858 46.3722 12.0114 46.196 12.0341C46.0227 12.054 45.8821 12.071 45.7741 12.0852C45.5128 12.1193 45.2685 12.1747 45.0412 12.2514C44.8168 12.3253 44.6349 12.4375 44.4957 12.5881C44.3594 12.7358 44.2912 12.9375 44.2912 13.1932C44.2912 13.5426 44.4205 13.8068 44.679 13.9858C44.9403 14.1619 45.2713 14.25 45.6719 14.25ZM50.354 15V8.45455H51.3256V9.44318H51.3938C51.5131 9.11932 51.729 8.85653 52.0415 8.65483C52.354 8.45312 52.7063 8.35227 53.0984 8.35227C53.1722 8.35227 53.2646 8.35369 53.3754 8.35653C53.4862 8.35937 53.57 8.36364 53.6268 8.36932V9.39205C53.5927 9.38352 53.5146 9.37074 53.3924 9.35369C53.2731 9.33381 53.1467 9.32386 53.0131 9.32386C52.695 9.32386 52.4109 9.39062 52.1609 9.52415C51.9137 9.65483 51.7177 9.83665 51.5728 10.0696C51.4308 10.2997 51.3597 10.5625 51.3597 10.858V15H50.354Z" fill="white"/>
</svg>
