<svg width="200" height="26" viewBox="0 0 200 26" fill="none" xmlns="http://www.w3.org/2000/svg">
<rect x="0.0307617" width="199.969" height="26" fill="#3B5998"/>
<path d="M19.3274 20.11C16.4234 20.11 14.2014 19.4427 12.6614 18.108C11.1214 16.7587 10.3514 14.764 10.3514 12.124C10.3514 9.49867 11.1214 7.51133 12.6614 6.162C14.2014 4.81267 16.4234 4.14533 19.3274 4.16L27.2474 4.204V7.02H19.5694C17.6627 7.02 16.2474 7.42333 15.3234 8.23C14.3994 9.03667 13.9374 10.3347 13.9374 12.124C13.9374 13.9133 14.3994 15.2187 15.3234 16.04C16.2474 16.8467 17.6627 17.25 19.5694 17.25H27.4674V20.11H19.3274ZM29.335 20V4.27H32.525V20H29.335ZM37.9564 20C36.7684 20 35.8591 19.6993 35.2284 19.098C34.5978 18.4967 34.2824 17.6387 34.2824 16.524C34.2824 15.424 34.5978 14.5733 35.2284 13.972C35.8591 13.3707 36.7684 13.07 37.9564 13.07H46.4044V12.542C46.4044 11.6473 45.9644 11.2 45.0844 11.2H35.7564V8.67H45.9204C47.2551 8.67 48.2011 8.978 48.7584 9.594C49.3158 10.1953 49.5944 11.046 49.5944 12.146V20H37.9564ZM38.5284 17.47H46.4044V15.6H38.5284C38.2498 15.6 38.0298 15.688 37.8684 15.864C37.7218 16.0253 37.6484 16.2453 37.6484 16.524C37.6484 16.8027 37.7218 17.03 37.8684 17.206C38.0298 17.382 38.2498 17.47 38.5284 17.47ZM51.6485 20.11V17.58H62.4285C63.0445 17.58 63.3525 17.2353 63.3525 16.546C63.3525 15.8713 63.0445 15.534 62.4285 15.534H55.4545C54.1492 15.534 53.1592 15.2407 52.4845 14.654C51.8098 14.0527 51.4725 13.1947 51.4725 12.08C51.4725 10.9507 51.8098 10.0853 52.4845 9.484C53.1738 8.868 54.1638 8.56 55.4545 8.56H65.4865V11.09H55.6085C54.9778 11.09 54.6625 11.398 54.6625 12.014C54.6625 12.322 54.7505 12.564 54.9265 12.74C55.1025 12.916 55.3298 13.004 55.6085 13.004H63.0005C64.1445 13.004 65.0172 13.3047 65.6185 13.906C66.2345 14.4927 66.5425 15.3507 66.5425 16.48C66.5425 17.624 66.2345 18.5187 65.6185 19.164C65.0025 19.7947 64.1298 20.11 63.0005 20.11H51.6485ZM68.0411 20.11V17.58H78.8211C79.4371 17.58 79.7451 17.2353 79.7451 16.546C79.7451 15.8713 79.4371 15.534 78.8211 15.534H71.8471C70.5417 15.534 69.5517 15.2407 68.8771 14.654C68.2024 14.0527 67.8651 13.1947 67.8651 12.08C67.8651 10.9507 68.2024 10.0853 68.8771 9.484C69.5664 8.868 70.5564 8.56 71.8471 8.56H81.8791V11.09H72.0011C71.3704 11.09 71.0551 11.398 71.0551 12.014C71.0551 12.322 71.1431 12.564 71.3191 12.74C71.4951 12.916 71.7224 13.004 72.0011 13.004H79.3931C80.5371 13.004 81.4097 13.3047 82.0111 13.906C82.6271 14.4927 82.9351 15.3507 82.9351 16.48C82.9351 17.624 82.6271 18.5187 82.0111 19.164C81.3951 19.7947 80.5224 20.11 79.3931 20.11H68.0411ZM84.8077 20V8.67H87.9977V20H84.8077ZM84.7857 6.8V4.314H88.0197V6.8H84.7857ZM92.9231 20V11.2H89.6451V8.67H92.9231V7.79C92.9231 6.74867 93.2237 5.91267 93.8251 5.282C94.4264 4.63667 95.3651 4.314 96.6411 4.314H101.437V6.844H97.4331C96.5531 6.844 96.1131 7.29133 96.1131 8.186V8.67H100.821V11.2H96.1131V20H92.9231ZM102.876 20V8.67H106.066V20H102.876ZM102.854 6.8V4.314H106.088V6.8H102.854ZM114.291 20.11C112.326 20.11 110.793 19.626 109.693 18.658C108.593 17.6753 108.043 16.238 108.043 14.346C108.043 12.4393 108.593 11.002 109.693 10.034C110.793 9.05133 112.326 8.56 114.291 8.56H121.661V11.09H114.291C113.338 11.09 112.605 11.354 112.091 11.882C111.593 12.41 111.343 13.2313 111.343 14.346C111.343 15.446 111.593 16.26 112.091 16.788C112.605 17.316 113.338 17.58 114.291 17.58H121.881V20.11H114.291ZM126.537 20C125.349 20 124.439 19.6993 123.809 19.098C123.178 18.4967 122.863 17.6387 122.863 16.524C122.863 15.424 123.178 14.5733 123.809 13.972C124.439 13.3707 125.349 13.07 126.537 13.07H134.985V12.542C134.985 11.6473 134.545 11.2 133.665 11.2H124.337V8.67H134.501C135.835 8.67 136.781 8.978 137.339 9.594C137.896 10.1953 138.175 11.046 138.175 12.146V20H126.537ZM127.109 17.47H134.985V15.6H127.109C126.83 15.6 126.61 15.688 126.449 15.864C126.302 16.0253 126.229 16.2453 126.229 16.524C126.229 16.8027 126.302 17.03 126.449 17.206C126.61 17.382 126.83 17.47 127.109 17.47ZM154.551 20H151.361V4.27H154.551V20ZM154.001 20H146.411C144.445 20 142.913 19.516 141.813 18.548C140.713 17.58 140.163 16.1793 140.163 14.346C140.163 12.498 140.713 11.09 141.813 10.122C142.913 9.154 144.445 8.67 146.411 8.67H153.781V11.2H146.411C145.457 11.2 144.724 11.464 144.211 11.992C143.712 12.5053 143.463 13.29 143.463 14.346C143.463 15.3873 143.712 16.172 144.211 16.7C144.724 17.2133 145.457 17.47 146.411 17.47H154.001V20ZM162.782 20.11C160.816 20.11 159.284 19.626 158.184 18.658C157.084 17.6753 156.534 16.238 156.534 14.346C156.534 12.4393 157.084 11.002 158.184 10.034C159.284 9.05133 160.816 8.56 162.782 8.56H166.852C168.817 8.56 170.35 9.05133 171.45 10.034C172.55 11.002 173.1 12.4393 173.1 14.346C173.1 16.238 172.55 17.6753 171.45 18.658C170.35 19.626 168.817 20.11 166.852 20.11H162.782ZM162.782 17.58H166.852C167.805 17.58 168.531 17.316 169.03 16.788C169.543 16.26 169.8 15.446 169.8 14.346C169.8 13.2313 169.543 12.41 169.03 11.882C168.531 11.354 167.805 11.09 166.852 11.09H162.782C161.828 11.09 161.095 11.354 160.582 11.882C160.083 12.41 159.834 13.2313 159.834 14.346C159.834 15.446 160.083 16.26 160.582 16.788C161.095 17.316 161.828 17.58 162.782 17.58ZM174.711 20.11V17.58H185.491C186.107 17.58 186.415 17.2353 186.415 16.546C186.415 15.8713 186.107 15.534 185.491 15.534H178.517C177.212 15.534 176.222 15.2407 175.547 14.654C174.872 14.0527 174.535 13.1947 174.535 12.08C174.535 10.9507 174.872 10.0853 175.547 9.484C176.236 8.868 177.226 8.56 178.517 8.56H188.549V11.09H178.671C178.04 11.09 177.725 11.398 177.725 12.014C177.725 12.322 177.813 12.564 177.989 12.74C178.165 12.916 178.392 13.004 178.671 13.004H186.063C187.207 13.004 188.08 13.3047 188.681 13.906C189.297 14.4927 189.605 15.3507 189.605 16.48C189.605 17.624 189.297 18.5187 188.681 19.164C188.065 19.7947 187.192 20.11 186.063 20.11H174.711Z" fill="white"/>
</svg>
