<svg width="240" height="37" viewBox="0 0 240 37" fill="none" xmlns="http://www.w3.org/2000/svg">
<rect x="0.174072" width="239.099" height="36.7173" fill="#3B5998"/>
<path d="M23.9083 27.4679C20.4763 27.4679 17.8503 26.6792 16.0303 25.1019C14.2103 23.5072 13.3003 21.1499 13.3003 18.0299C13.3003 14.9272 14.2103 12.5786 16.0303 10.9839C17.8503 9.38922 20.4763 8.60056 23.9083 8.61789L33.2683 8.66989V11.9979H24.1943C21.9409 11.9979 20.2683 12.4746 19.1763 13.4279C18.0843 14.3812 17.5383 15.9152 17.5383 18.0299C17.5383 20.1446 18.0843 21.6872 19.1763 22.6579C20.2683 23.6112 21.9409 24.0879 24.1943 24.0879H33.5283V27.4679H23.9083ZM35.7354 27.3379V8.74789H39.5054V27.3379H35.7354ZM45.9244 27.3379C44.5204 27.3379 43.4457 26.9826 42.7004 26.2719C41.955 25.5612 41.5824 24.5472 41.5824 23.2299C41.5824 21.9299 41.955 20.9246 42.7004 20.2139C43.4457 19.5032 44.5204 19.1479 45.9244 19.1479H55.9084V18.5239C55.9084 17.4666 55.3884 16.9379 54.3484 16.9379H43.3244V13.9479H55.3364C56.9137 13.9479 58.0317 14.3119 58.6904 15.0399C59.349 15.7506 59.6784 16.7559 59.6784 18.0559V27.3379H45.9244ZM46.6004 24.3479H55.9084V22.1379H46.6004C46.271 22.1379 46.011 22.2419 45.8204 22.4499C45.647 22.6406 45.5604 22.9006 45.5604 23.2299C45.5604 23.5592 45.647 23.8279 45.8204 24.0359C46.011 24.2439 46.271 24.3479 46.6004 24.3479ZM62.1059 27.4679V24.4779H74.8459C75.5739 24.4779 75.9379 24.0706 75.9379 23.2559C75.9379 22.4586 75.5739 22.0599 74.8459 22.0599H66.6039C65.0613 22.0599 63.8913 21.7132 63.0939 21.0199C62.2966 20.3092 61.8979 19.2952 61.8979 17.9779C61.8979 16.6432 62.2966 15.6206 63.0939 14.9099C63.9086 14.1819 65.0786 13.8179 66.6039 13.8179H78.4599V16.8079H66.7859C66.0406 16.8079 65.6679 17.1719 65.6679 17.8999C65.6679 18.2639 65.7719 18.5499 65.9799 18.7579C66.1879 18.9659 66.4566 19.0699 66.7859 19.0699H75.5219C76.8739 19.0699 77.9053 19.4252 78.6159 20.1359C79.3439 20.8292 79.7079 21.8432 79.7079 23.1779C79.7079 24.5299 79.3439 25.5872 78.6159 26.3499C77.8879 27.0952 76.8566 27.4679 75.5219 27.4679H62.1059ZM81.479 27.4679V24.4779H94.219C94.947 24.4779 95.311 24.0706 95.311 23.2559C95.311 22.4586 94.947 22.0599 94.219 22.0599H85.977C84.4343 22.0599 83.2643 21.7132 82.467 21.0199C81.6696 20.3092 81.271 19.2952 81.271 17.9779C81.271 16.6432 81.6696 15.6206 82.467 14.9099C83.2816 14.1819 84.4516 13.8179 85.977 13.8179H97.833V16.8079H86.159C85.4136 16.8079 85.041 17.1719 85.041 17.8999C85.041 18.2639 85.145 18.5499 85.353 18.7579C85.561 18.9659 85.8296 19.0699 86.159 19.0699H94.895C96.247 19.0699 97.2783 19.4252 97.989 20.1359C98.717 20.8292 99.081 21.8432 99.081 23.1779C99.081 24.5299 98.717 25.5872 97.989 26.3499C97.261 27.0952 96.2296 27.4679 94.895 27.4679H81.479ZM101.294 27.3379V13.9479H105.064V27.3379H101.294ZM101.268 11.7379V8.79989H105.09V11.7379H101.268ZM110.885 27.3379V16.9379H107.011V13.9479H110.885V12.9079C110.885 11.6772 111.24 10.6892 111.951 9.94389C112.662 9.18122 113.771 8.79989 115.279 8.79989H120.947V11.7899H116.215C115.175 11.7899 114.655 12.3186 114.655 13.3759V13.9479H120.219V16.9379H114.655V27.3379H110.885ZM122.648 27.3379V13.9479H126.418V27.3379H122.648ZM122.622 11.7379V8.79989H126.444V11.7379H122.622ZM136.138 27.4679C133.816 27.4679 132.004 26.8959 130.704 25.7519C129.404 24.5906 128.754 22.8919 128.754 20.6559C128.754 18.4026 129.404 16.7039 130.704 15.5599C132.004 14.3986 133.816 13.8179 136.138 13.8179H144.848V16.8079H136.138C135.012 16.8079 134.145 17.1199 133.538 17.7439C132.949 18.3679 132.654 19.3386 132.654 20.6559C132.654 21.9559 132.949 22.9179 133.538 23.5419C134.145 24.1659 135.012 24.4779 136.138 24.4779H145.108V27.4679H136.138ZM150.61 27.3379C149.206 27.3379 148.131 26.9826 147.386 26.2719C146.641 25.5612 146.268 24.5472 146.268 23.2299C146.268 21.9299 146.641 20.9246 147.386 20.2139C148.131 19.5032 149.206 19.1479 150.61 19.1479H160.594V18.5239C160.594 17.4666 160.074 16.9379 159.034 16.9379H148.01V13.9479H160.022C161.599 13.9479 162.717 14.3119 163.376 15.0399C164.035 15.7506 164.364 16.7559 164.364 18.0559V27.3379H150.61ZM151.286 24.3479H160.594V22.1379H151.286C150.957 22.1379 150.697 22.2419 150.506 22.4499C150.333 22.6406 150.246 22.9006 150.246 23.2299C150.246 23.5592 150.333 23.8279 150.506 24.0359C150.697 24.2439 150.957 24.3479 151.286 24.3479ZM183.717 27.3379H179.947V8.74789H183.717V27.3379ZM183.067 27.3379H174.097C171.775 27.3379 169.963 26.7659 168.663 25.6219C167.363 24.4779 166.713 22.8226 166.713 20.6559C166.713 18.4719 167.363 16.8079 168.663 15.6639C169.963 14.5199 171.775 13.9479 174.097 13.9479H182.807V16.9379H174.097C172.971 16.9379 172.104 17.2499 171.497 17.8739C170.908 18.4806 170.613 19.4079 170.613 20.6559C170.613 21.8866 170.908 22.8139 171.497 23.4379C172.104 24.0446 172.971 24.3479 174.097 24.3479H183.067V27.3379ZM193.445 27.4679C191.122 27.4679 189.311 26.8959 188.011 25.7519C186.711 24.5906 186.061 22.8919 186.061 20.6559C186.061 18.4026 186.711 16.7039 188.011 15.5599C189.311 14.3986 191.122 13.8179 193.445 13.8179H198.255C200.578 13.8179 202.389 14.3986 203.689 15.5599C204.989 16.7039 205.639 18.4026 205.639 20.6559C205.639 22.8919 204.989 24.5906 203.689 25.7519C202.389 26.8959 200.578 27.4679 198.255 27.4679H193.445ZM193.445 24.4779H198.255C199.382 24.4779 200.24 24.1659 200.829 23.5419C201.436 22.9179 201.739 21.9559 201.739 20.6559C201.739 19.3386 201.436 18.3679 200.829 17.7439C200.24 17.1199 199.382 16.8079 198.255 16.8079H193.445C192.318 16.8079 191.452 17.1199 190.845 17.7439C190.256 18.3679 189.961 19.3386 189.961 20.6559C189.961 21.9559 190.256 22.9179 190.845 23.5419C191.452 24.1659 192.318 24.4779 193.445 24.4779ZM207.543 27.4679V24.4779H220.283C221.011 24.4779 221.375 24.0706 221.375 23.2559C221.375 22.4586 221.011 22.0599 220.283 22.0599H212.041C210.499 22.0599 209.329 21.7132 208.531 21.0199C207.734 20.3092 207.335 19.2952 207.335 17.9779C207.335 16.6432 207.734 15.6206 208.531 14.9099C209.346 14.1819 210.516 13.8179 212.041 13.8179H223.897V16.8079H212.223C211.478 16.8079 211.105 17.1719 211.105 17.8999C211.105 18.2639 211.209 18.5499 211.417 18.7579C211.625 18.9659 211.894 19.0699 212.223 19.0699H220.959C222.311 19.0699 223.343 19.4252 224.053 20.1359C224.781 20.8292 225.145 21.8432 225.145 23.1779C225.145 24.5299 224.781 25.5872 224.053 26.3499C223.325 27.0952 222.294 27.4679 220.959 27.4679H207.543Z" fill="white"/>
</svg>
